<svg width="275" height="58" viewBox="0 0 275 58" fill="none" xmlns="http://www.w3.org/2000/svg">
<g clip-path="url(#clip0_550_18458)">
<path d="M28.6458 0C7.2325 0 0 7.2325 0 28.6458C0 50.0592 7.2325 57.2917 28.6458 57.2917C50.0592 57.2917 57.2917 50.0592 57.2917 28.6458C57.2917 7.2325 50.0758 0 28.6458 0Z" fill="#0D0E10"/>
<path d="M25.6897 32.3201C23.856 30.4864 23.856 27.5132 25.6897 25.6795L36.7405 14.6287C39.6982 11.671 44.7563 13.7657 44.7563 17.9487V40.0497C44.7563 44.2328 39.6988 46.328 36.7405 43.3697L25.6897 32.3189V32.3201Z" fill="url(#paint0_linear_550_18458)"/>
<path d="M32.3108 32.3201C34.1444 30.4864 34.1444 27.5132 32.3108 25.6795L21.26 14.6287C18.3017 11.671 13.2441 13.7657 13.2441 17.9487V40.0497C13.2441 44.2328 18.3017 46.328 21.26 43.3697L32.3108 32.3189V32.3201Z" fill="white"/>
</g>
<g clip-path="url(#clip1_550_18458)">
<path fill-rule="evenodd" clip-rule="evenodd" d="M119.176 16.2233C121.512 16.2233 123.568 16.6817 125.342 17.5984C127.146 18.515 128.55 19.8899 129.556 21.7232C130.591 23.527 131.108 25.7893 131.108 28.5097C131.108 31.2597 130.576 33.5514 129.511 35.3847C128.476 37.1884 127.057 38.5339 125.253 39.421C123.479 40.3081 121.453 40.7516 119.176 40.7516C116.84 40.7515 114.785 40.2931 113.011 39.3765C111.237 38.4303 109.847 37.0554 108.842 35.2517C107.836 33.4184 107.334 31.1415 107.334 28.4211C107.334 25.7007 107.836 23.4384 108.842 21.6347C109.877 19.8309 111.281 18.4855 113.055 17.5984C114.859 16.6818 116.9 16.2233 119.176 16.2233ZM118.999 21.1911C117.905 21.1911 116.959 21.4574 116.161 21.9897C115.362 22.4924 114.756 23.2908 114.342 24.3849C113.928 25.4493 113.721 26.7651 113.721 28.3322C113.721 30.8456 114.224 32.753 115.229 34.0541C116.234 35.3551 117.624 36.0057 119.398 36.0057C120.552 36.0057 121.513 35.7394 122.282 35.2072C123.08 34.6749 123.671 33.8765 124.056 32.812C124.47 31.718 124.677 30.4022 124.677 28.8647C124.677 27.2383 124.455 25.8631 124.011 24.7394C123.597 23.5863 122.976 22.7141 122.149 22.1227C121.321 21.5018 120.271 21.1912 118.999 21.1911Z" fill="#0D0E10"/>
<path fill-rule="evenodd" clip-rule="evenodd" d="M169.574 16.2233C171.348 16.2233 172.93 16.519 174.32 17.1104C175.71 17.6722 176.863 18.5298 177.78 19.683C178.726 20.8363 179.406 22.2559 179.82 23.9413C180.15 25.1726 180.324 26.5428 180.343 28.052C180.353 28.7887 180.357 29.157 180.108 29.4121C179.859 29.6672 179.471 29.6709 178.697 29.6784L165.841 29.8033C164.958 29.8119 164.516 29.8162 164.261 30.1424C164.006 30.4686 164.098 30.853 164.282 31.6217C164.549 32.7409 164.998 33.6404 165.626 34.3201C166.75 35.5029 168.214 36.0943 170.018 36.0943C170.845 36.0942 171.54 35.9907 172.102 35.7837C172.694 35.5472 173.167 35.2515 173.521 34.8967C173.906 34.5418 174.201 34.1426 174.408 33.6991C174.748 33.0623 174.918 32.7439 175.139 32.6208C175.181 32.5972 175.21 32.5838 175.255 32.5668C175.492 32.4779 175.796 32.5436 176.404 32.675L178.805 33.1937C179.638 33.3736 180.055 33.4635 180.241 33.8204C180.428 34.1772 180.28 34.532 179.984 35.2417C179.795 35.6958 179.578 36.1279 179.332 36.5378C178.829 37.3953 178.149 38.1494 177.292 38.7999C176.434 39.4209 175.399 39.8942 174.187 40.2195C173.004 40.5743 171.614 40.7516 170.018 40.7516C168.096 40.7516 166.38 40.4853 164.872 39.953C163.394 39.4208 162.137 38.6522 161.102 37.6468C160.067 36.6415 159.269 35.3995 158.707 33.9211C158.175 32.4426 157.909 30.7716 157.909 28.9087C157.909 27.0755 158.16 25.39 158.663 23.8524C159.195 22.2852 159.964 20.9397 160.969 19.8161C161.974 18.6629 163.201 17.7758 164.65 17.1549C166.099 16.5339 167.741 16.2233 169.574 16.2233ZM169.663 21.1911C168.539 21.1911 167.548 21.4868 166.691 22.0782C165.833 22.6696 165.168 23.5418 164.695 24.6949C164.509 25.1363 164.416 25.357 164.468 25.6165C164.509 25.816 164.664 26.0483 164.834 26.1613C165.054 26.3082 165.337 26.3057 165.903 26.3005L172.704 26.2387C173.573 26.2309 174.007 26.2269 174.261 25.8763C174.516 25.5256 174.407 25.1808 174.189 24.4913C174.148 24.3629 174.103 24.2387 174.054 24.1184C173.64 23.1131 173.034 22.3738 172.235 21.9007C171.466 21.4276 170.609 21.1912 169.663 21.1911Z" fill="#0D0E10"/>
<path fill-rule="evenodd" clip-rule="evenodd" d="M193.345 16.2233C195.12 16.2233 196.701 16.519 198.091 17.1104C199.481 17.6722 200.634 18.5298 201.551 19.683C202.497 20.8363 203.177 22.2558 203.591 23.9413C203.921 25.1726 204.095 26.5428 204.115 28.052C204.124 28.7887 204.129 29.157 203.879 29.4121C203.63 29.6672 203.243 29.6709 202.468 29.6784L189.612 29.8033C188.729 29.8119 188.288 29.8162 188.033 30.1423C187.778 30.4685 187.87 30.8529 188.054 31.6217C188.321 32.7409 188.769 33.6404 189.398 34.3201C190.521 35.5029 191.985 36.0943 193.789 36.0943C194.617 36.0943 195.312 35.9907 195.874 35.7837C196.465 35.5472 196.938 35.2515 197.293 34.8967C197.677 34.5418 197.973 34.1426 198.18 33.6991C198.52 33.0623 198.69 32.7439 198.91 32.6208C198.953 32.5972 198.981 32.5838 199.027 32.5668C199.263 32.4779 199.568 32.5436 200.176 32.675L202.577 33.1937C203.41 33.3736 203.826 33.4635 204.013 33.8204C204.2 34.1772 204.052 34.532 203.756 35.2417C203.567 35.6959 203.349 36.1279 203.104 36.5378C202.601 37.3953 201.92 38.1494 201.063 38.7999C200.205 39.4209 199.171 39.8942 197.958 40.2195C196.775 40.5743 195.386 40.7516 193.789 40.7516C191.867 40.7516 190.152 40.4853 188.644 39.953C187.165 39.4208 185.909 38.6521 184.874 37.6468C183.839 36.6415 183.04 35.3995 182.479 33.9211C181.946 32.4426 181.68 30.7716 181.68 28.9087C181.68 27.0755 181.931 25.39 182.434 23.8524C182.966 22.2852 183.735 20.9397 184.74 19.8161C185.746 18.6628 186.973 17.7758 188.422 17.1549C189.871 16.5339 191.512 16.2233 193.345 16.2233ZM193.434 21.1911C192.31 21.1912 191.32 21.4868 190.462 22.0782C189.605 22.6696 188.939 23.5418 188.466 24.6949C188.28 25.1363 188.187 25.357 188.24 25.6165C188.28 25.816 188.436 26.0483 188.605 26.1613C188.825 26.3082 189.108 26.3057 189.674 26.3005L196.475 26.2387C197.344 26.2309 197.778 26.2269 198.033 25.8763C198.287 25.5256 198.178 25.1808 197.96 24.4913C197.92 24.3629 197.875 24.2387 197.825 24.1184C197.411 23.1131 196.805 22.3738 196.007 21.9007C195.238 21.4276 194.38 21.1911 193.434 21.1911Z" fill="#0D0E10"/>
<path fill-rule="evenodd" clip-rule="evenodd" d="M264.124 16.2233C265.898 16.2233 267.48 16.519 268.87 17.1104C270.26 17.6722 271.413 18.5298 272.33 19.683C273.276 20.8363 273.956 22.2559 274.37 23.9413C274.7 25.1726 274.874 26.5428 274.894 28.052C274.903 28.7887 274.908 29.157 274.658 29.4121C274.409 29.6672 274.021 29.6709 273.247 29.6784L260.391 29.8033C259.508 29.8119 259.067 29.8162 258.812 30.1423C258.557 30.4685 258.649 30.8529 258.832 31.6217C259.1 32.7409 259.548 33.6404 260.176 34.3201C261.3 35.5029 262.764 36.0943 264.568 36.0943C265.396 36.0942 266.091 35.9907 266.652 35.7837C267.244 35.5472 267.717 35.2515 268.072 34.8967C268.456 34.5418 268.752 34.1426 268.959 33.6991C269.298 33.0623 269.468 32.7439 269.689 32.6208C269.731 32.5972 269.76 32.5838 269.805 32.5668C270.042 32.4779 270.346 32.5436 270.954 32.675L273.355 33.1937C274.188 33.3736 274.605 33.4635 274.791 33.8204C274.978 34.1772 274.83 34.532 274.535 35.2417C274.345 35.6958 274.128 36.1279 273.882 36.5378C273.379 37.3953 272.699 38.1494 271.842 38.7999C270.984 39.4209 269.949 39.8942 268.737 40.2195C267.554 40.5743 266.164 40.7516 264.568 40.7516C262.646 40.7516 260.93 40.4853 259.422 39.953C257.944 39.4208 256.687 38.6522 255.652 37.6468C254.617 36.6415 253.819 35.3995 253.257 33.9211C252.725 32.4426 252.459 30.7716 252.459 28.9087C252.459 27.0755 252.71 25.39 253.213 23.8524C253.745 22.2852 254.514 20.9397 255.519 19.8161C256.524 18.6628 257.752 17.7758 259.201 17.1549C260.65 16.5339 262.291 16.2233 264.124 16.2233ZM264.213 21.1911C263.089 21.1912 262.099 21.4868 261.241 22.0782C260.384 22.6696 259.718 23.5418 259.245 24.6949C259.059 25.1363 258.966 25.357 259.019 25.6165C259.059 25.816 259.215 26.0483 259.384 26.1613C259.604 26.3082 259.887 26.3057 260.453 26.3005L267.254 26.2387C268.123 26.2309 268.557 26.2269 268.812 25.8763C269.066 25.5256 268.957 25.1808 268.739 24.4913C268.699 24.3629 268.654 24.2387 268.604 24.1184C268.19 23.1131 267.584 22.3738 266.785 21.9007C266.017 21.4276 265.159 21.1911 264.213 21.1911Z" fill="#0D0E10"/>
<path d="M214.995 15.1256C214.995 15.9358 214.995 16.3409 215.247 16.5926C215.499 16.8443 215.904 16.8443 216.714 16.8443H219.176C219.986 16.8443 220.391 16.8443 220.643 17.096C220.895 17.3477 220.895 17.7529 220.895 18.5631V20.315C220.895 21.1252 220.895 21.5303 220.643 21.782C220.391 22.0337 219.986 22.0337 219.176 22.0337H216.714C215.904 22.0337 215.499 22.0337 215.247 22.2854C214.995 22.5371 214.995 22.9423 214.995 23.7525V31.7474C214.995 32.812 215.247 33.581 215.75 34.0541C216.252 34.5272 217.021 34.7637 218.056 34.7637C218.618 34.7636 219.15 34.7044 219.653 34.5862C220.272 34.4486 221.028 34.8759 221.028 35.5101V38.7015C221.028 39.3176 221.028 39.6257 220.843 39.8599C220.658 40.0942 220.38 40.1602 219.823 40.2923C219.36 40.4024 218.919 40.4816 218.5 40.53C217.731 40.6187 217.051 40.663 216.459 40.663C213.857 40.663 211.935 39.9826 210.693 38.6224C209.481 37.2326 208.875 35.0296 208.875 32.0135V23.575C208.875 22.7648 208.875 22.3597 208.623 22.1079C208.371 21.8562 207.966 21.8562 207.156 21.8562H205.964C205.141 21.8562 204.729 21.8562 204.476 21.5991C204.224 21.3421 204.231 20.9304 204.246 20.1071L204.273 18.5327C204.287 17.7356 204.295 17.3371 204.545 17.0907C204.796 16.8443 205.195 16.8443 205.992 16.8443C205.992 16.8443 206.165 16.8443 206.663 16.8443C209.759 16.8443 209.584 11.6549 212.679 11.6549C213.129 11.6549 213.277 11.6549 213.277 11.6549C214.087 11.6549 214.492 11.6549 214.744 11.9066C214.995 12.1583 214.995 12.5635 214.995 13.3737V15.1256Z" fill="#0D0E10"/>
<path d="M97.5628 16.2233C98.8343 16.2233 99.9433 16.4747 100.89 16.9774C101.865 17.48 102.678 18.2342 103.329 19.2395C103.979 20.2153 104.468 21.4572 104.793 22.9653C105.118 24.4438 105.28 26.159 105.28 28.1106V38.4118C105.28 39.222 105.28 39.6271 105.029 39.8788C104.777 40.1305 104.372 40.1305 103.562 40.1305H100.612C99.8019 40.1305 99.3968 40.1305 99.1451 39.8788C98.8934 39.6271 98.8934 39.222 98.8934 38.4118V28.9087C98.8934 27.312 98.7605 25.9814 98.4944 24.9169C98.2282 23.8228 97.8141 23.0095 97.2523 22.4773C96.6905 21.9451 95.9661 21.6792 95.0791 21.6792C94.1033 21.6792 93.2606 22.0192 92.5509 22.6993C91.8412 23.3498 91.2793 24.2517 90.8653 25.4049C90.4514 26.5581 90.2294 27.8739 90.1998 29.3523V38.4118C90.1998 39.222 90.1998 39.6271 89.9481 39.8788C89.6964 40.1305 89.2913 40.1305 88.4811 40.1305H85.6646C84.8544 40.1305 84.4492 40.1305 84.1975 39.8788C83.9458 39.6271 83.9458 39.222 83.9458 38.4118V29.0862C83.9458 27.4303 83.798 26.07 83.5023 25.0055C83.2066 23.9115 82.7779 23.0836 82.2162 22.5218C81.6544 21.9599 80.9446 21.6792 80.087 21.6792C79.0817 21.6792 78.2241 22.0191 77.5144 22.6993C76.8048 23.3498 76.2576 24.2663 75.8733 25.449C75.4888 26.6318 75.2818 27.9478 75.2522 29.3968V38.4118C75.2522 39.222 75.2522 39.6271 75.0005 39.8788C74.7488 40.1305 74.3437 40.1305 73.5335 40.1305H70.584C69.7738 40.1305 69.3686 40.1305 69.1169 39.8788C68.8652 39.6271 68.8652 39.222 68.8652 38.4118V18.5631C68.8652 17.7529 68.8652 17.3477 69.1169 17.096C69.3686 16.8443 69.7738 16.8443 70.584 16.8443H72.2473C73.0576 16.8443 73.4627 16.8443 73.7144 17.096C73.9661 17.3477 73.9661 17.7529 73.9661 18.5631V23.3365C73.9661 23.5968 74.1772 23.8079 74.4375 23.8079C74.6553 23.8079 74.8442 23.6584 74.8988 23.4477C75.3009 21.8953 75.818 20.6109 76.4498 19.5945C77.1299 18.4709 77.9433 17.6281 78.8895 17.0663C79.8653 16.5045 81.0037 16.2233 82.3047 16.2233C83.6945 16.2233 84.8478 16.5339 85.7645 17.1549C86.6811 17.7758 87.3909 18.648 87.8936 19.7716C88.3558 20.7775 88.6678 21.996 88.83 23.4268C88.8544 23.6424 89.0352 23.8079 89.2522 23.8079C89.4443 23.8079 89.6115 23.6774 89.6616 23.4919C90.0951 21.8894 90.6592 20.5606 91.3533 19.5055C92.1221 18.382 93.0238 17.5541 94.0586 17.0218C95.1231 16.4896 96.2913 16.2233 97.5628 16.2233Z" fill="#0D0E10"/>
<path d="M147.669 16.2233C150.36 16.2234 152.4 17.1696 153.79 19.062C155.21 20.9545 155.919 23.9266 155.919 27.9776V38.4118C155.919 39.222 155.919 39.6271 155.667 39.8788C155.415 40.1305 155.01 40.1305 154.2 40.1305H151.206C150.396 40.1305 149.991 40.1305 149.739 39.8788C149.487 39.6271 149.487 39.222 149.487 38.4118V28.6872C149.487 26.2033 149.118 24.3995 148.379 23.2758C147.669 22.1226 146.619 21.5462 145.23 21.5461C144.047 21.5461 143.056 21.9156 142.258 22.6548C141.459 23.394 140.853 24.3701 140.439 25.5824C140.055 26.7652 139.848 28.0958 139.818 29.5743V38.4118C139.818 39.222 139.818 39.6271 139.567 39.8788C139.315 40.1305 138.91 40.1305 138.099 40.1305H135.15C134.34 40.1305 133.935 40.1305 133.683 39.8788C133.431 39.6271 133.431 39.222 133.431 38.4118V18.5631C133.431 17.7529 133.431 17.3477 133.683 17.096C133.935 16.8443 134.34 16.8443 135.15 16.8443H136.935C137.75 16.8443 138.158 16.8443 138.41 17.098C138.662 17.3516 138.659 17.7591 138.654 18.5741L138.624 23.313C138.622 23.5858 138.843 23.8079 139.116 23.8079C139.345 23.8079 139.543 23.6489 139.599 23.4262C139.977 21.9094 140.493 20.6322 141.149 19.5945C141.858 18.4709 142.746 17.6281 143.81 17.0663C144.904 16.5045 146.191 16.2233 147.669 16.2233Z" fill="#0D0E10"/>
<path d="M229.609 38.4118C229.609 39.222 229.609 39.6271 229.357 39.8788C229.106 40.1305 228.701 40.1305 227.89 40.1305H224.941C224.131 40.1305 223.725 40.1305 223.474 39.8788C223.222 39.6271 223.222 39.222 223.222 38.4118V18.5631C223.222 17.7529 223.222 17.3477 223.474 17.096C223.725 16.8443 224.131 16.8443 224.941 16.8443H227.89C228.701 16.8443 229.106 16.8443 229.357 17.096C229.609 17.3477 229.609 17.7529 229.609 18.5631V38.4118Z" fill="#0D0E10"/>
<path d="M251.594 21.4163C251.594 21.7649 251.594 21.9392 251.53 22.0962C251.465 22.2532 251.342 22.3771 251.097 22.6249L239.612 34.236C239.531 34.3184 239.485 34.4296 239.485 34.5455C239.485 34.7886 239.682 34.9856 239.925 34.9856H249.534C250.344 34.9856 250.749 34.9856 251.001 35.2373C251.253 35.489 251.253 35.8942 251.253 36.7044V38.4118C251.253 39.222 251.253 39.6271 251.001 39.8788C250.749 40.1305 250.344 40.1305 249.534 40.1305H233.175C232.365 40.1305 231.96 40.1305 231.708 39.8788C231.457 39.6271 231.457 39.222 231.457 38.4118V35.4682C231.457 35.1205 231.457 34.9466 231.521 34.79C231.585 34.6333 231.707 34.5095 231.951 34.2618L243.35 22.6948C243.431 22.6124 243.477 22.5014 243.477 22.3857C243.477 22.1424 243.28 21.9452 243.036 21.9452H233.827C233.017 21.9452 232.612 21.9452 232.36 21.6935C232.108 21.4418 232.108 21.0367 232.108 20.2264V18.5631C232.108 17.7529 232.108 17.3477 232.36 17.096C232.612 16.8443 233.017 16.8443 233.827 16.8443H249.875C250.686 16.8443 251.091 16.8443 251.342 17.096C251.594 17.3477 251.594 17.7529 251.594 18.5631V21.4163Z" fill="#0D0E10"/>
<path d="M223.719 14.6821C224.352 15.1857 225.252 15.4375 226.417 15.4375C227.608 15.4375 228.507 15.1857 229.115 14.6821C229.749 14.1521 230.065 13.3967 230.065 12.416C230.065 11.4354 229.749 10.6932 229.115 10.1897C228.507 9.65957 227.608 9.39453 226.417 9.39453C225.252 9.39453 224.352 9.65957 223.719 10.1897C223.111 10.6932 222.807 11.4486 222.807 12.4558C222.807 13.4099 223.111 14.1521 223.719 14.6821Z" fill="#0D0E10"/>
</g>
<defs>
<linearGradient id="paint0_linear_550_18458" x1="44.7563" y1="29.0001" x2="24.3145" y2="28.9993" gradientUnits="userSpaceOnUse">
<stop stop-color="white"/>
<stop offset="1" stop-color="white" stop-opacity="0.2"/>
</linearGradient>
<clipPath id="clip0_550_18458">
<rect width="57.2917" height="57.2917" fill="white"/>
</clipPath>
<clipPath id="clip1_550_18458">
<rect width="206.25" height="42.9687" fill="white" transform="translate(68.75 7.16211)"/>
</clipPath>
</defs>
</svg>
